<svg
  fill="none"
  stroke="currentColor"
  viewBox="0 0 24 24"
  xmlns="http://www.w3.org/2000/svg"
>
  <path
    strokeLinecap="round"
    strokeLinejoin="round"
    strokeWidth="2"
    d="M13.875 18.825A10.05 10.05 0 0112 19c-4.478 0-8.268-2.943-9.543-7a9.97 9.97 0 011.563-3.029m5.858.908a3 3 0 114.243 4.243M9.878 9.878l4.242 4.242M9.88 9.88l-3.29-3.29m7.532 7.532l3.29 3.29M3 3l3.29 3.29m0 0L9.88 9.88m-3.59-3.59l3.29 3.29M12 12l.01.01M21 12a9.97 9.97 0 01-1.563 3.029m-5.858-.908a3 3 0 00-4.243-4.243m4.242 4.242L9.88 9.88m0 0l-3.29-3.29m7.532 7.532l3.29 3.29"
  />
</svg>
